{
    "asset" : {
        "generator" : "Khronos glTF Blender I/O v1.6.16",
        "version" : "2.0"
    },
    "scene" : 0,
    "scenes" : [
        {
            "name" : "Scene",
            "nodes" : [
                0,
                1,
                2,
                3,
                4
            ]
        }
    ],
    "nodes" : [
        {
            "name" : "Light",
            "rotation" : [
                0.16907575726509094,
                0.7558803558349609,
                -0.27217137813568115,
                0.570947527885437
            ],
            "translation" : [
                4.076245307922363,
                5.903861999511719,
                -1.0054539442062378
            ]
        },
        {
            "name" : "Camera",
            "rotation" : [
                0.483536034822464,
                0.33687159419059753,
                -0.20870360732078552,
                0.7804827094078064
            ],
            "translation" : [
                6.470304012298584,
                4.926106929779053,
                6.34895658493042
            ]
        },
        {
            "mesh" : 0,
            "name" : "Torus",
            "scale" : [
                0.7586658000946045,
                0.8958115577697754,
                0.7586658000946045
            ],
            "translation" : [
                0,
                0.585189163684845,
                0
            ]
        },
        {
            "mesh" : 1,
            "name" : "Sphere.001",
            "rotation" : [
                -0.0009574815630912781,
                0.5432438254356384,
                -0.0014352946309372783,
                -0.8395732045173645
            ],
            "translation" : [
                0.0005841255187988281,
                0.1895195096731186,
                0
            ]
        },
        {
            "mesh" : 2,
            "name" : "Sphere.002",
            "rotation" : [
                -0.82154780626297,
                0.001465414185076952,
                0.5701372027397156,
                0.0009106255602091551
            ],
            "translation" : [
                0.0005841255187988281,
                0.9494527578353882,
                0
            ]
        }
    ],
    "materials" : [
        {
            "doubleSided" : true,
            "name" : "\u30af\u30ea\u30fc\u30e0",
            "pbrMetallicRoughness" : {
                "metallicFactor" : 0,
                "roughnessFactor" : 0.800000011920929
            }
        },
        {
            "doubleSided" : true,
            "name" : "\u30b4\u30ef\u30b4\u30ef",
            "pbrMetallicRoughness" : {
                "metallicFactor" : 0,
                "roughnessFactor" : 0.6090909242630005
            }
        },
        {
            "doubleSided" : true,
            "name" : "\u30c4\u30eb\u30c4\u30eb",
            "pbrMetallicRoughness" : {
                "metallicFactor" : 0,
                "roughnessFactor" : 0.5
            }
        }
    ],
    "meshes" : [
        {
            "name" : "Torus",
            "primitives" : [
                {
                    "attributes" : {
                        "POSITION" : 0,
                        "NORMAL" : 1,
                        "TANGENT" : 2,
                        "TEXCOORD_0" : 3
                    },
                    "indices" : 4,
                    "material" : 0
                }
            ]
        },
        {
            "name" : "Sphere.001",
            "primitives" : [
                {
                    "attributes" : {
                        "POSITION" : 5,
                        "NORMAL" : 6,
                        "TEXCOORD_0" : 7
                    },
                    "indices" : 8,
                    "material" : 1
                },
                {
                    "attributes" : {
                        "POSITION" : 9,
                        "NORMAL" : 10,
                        "TEXCOORD_0" : 11
                    },
                    "indices" : 12,
                    "material" : 2
                }
            ]
        },
        {
            "name" : "Sphere.002",
            "primitives" : [
                {
                    "attributes" : {
                        "POSITION" : 13,
                        "NORMAL" : 14,
                        "TEXCOORD_0" : 15
                    },
                    "indices" : 16,
                    "material" : 1
                },
                {
                    "attributes" : {
                        "POSITION" : 17,
                        "NORMAL" : 18,
                        "TEXCOORD_0" : 19
                    },
                    "indices" : 20,
                    "material" : 2
                }
            ]
        }
    ],
    "accessors" : [
        {
            "bufferView" : 0,
            "componentType" : 5126,
            "count" : 377,
            "max" : [
                1.25,
                0.25,
                1.25
            ],
            "min" : [
                -1.25,
                -0.25,
                -1.25
            ],
            "type" : "VEC3"
        },
        {
            "bufferView" : 1,
            "componentType" : 5126,
            "count" : 377,
            "type" : "VEC3"
        },
        {
            "bufferView" : 2,
            "componentType" : 5126,
            "count" : 377,
            "type" : "VEC4"
        },
        {
            "bufferView" : 3,
            "componentType" : 5126,
            "count" : 377,
            "type" : "VEC2"
        },
        {
            "bufferView" : 4,
            "componentType" : 5123,
            "count" : 2016,
            "type" : "SCALAR"
        },
        {
            "bufferView" : 5,
            "componentType" : 5126,
            "count" : 67,
            "max" : [
                1.0425751209259033,
                0.2691884934902191,
                1.0367705821990967
            ],
            "min" : [
                -1.0319205522537231,
                0.14654728770256042,
                -1.0377546548843384
            ],
            "type" : "VEC3"
        },
        {
            "bufferView" : 6,
            "componentType" : 5126,
            "count" : 67,
            "type" : "VEC3"
        },
        {
            "bufferView" : 7,
            "componentType" : 5126,
            "count" : 67,
            "type" : "VEC2"
        },
        {
            "bufferView" : 8,
            "componentType" : 5123,
            "count" : 234,
            "type" : "SCALAR"
        },
        {
            "bufferView" : 9,
            "componentType" : 5126,
            "count" : 171,
            "max" : [
                1.018189787864685,
                0.15451642870903015,
                1.0099250078201294
            ],
            "min" : [
                -1.0029313564300537,
                -0.29903408885002136,
                -1.011171579360962
            ],
            "type" : "VEC3"
        },
        {
            "bufferView" : 10,
            "componentType" : 5126,
            "count" : 171,
            "type" : "VEC3"
        },
        {
            "bufferView" : 11,
            "componentType" : 5126,
            "count" : 171,
            "type" : "VEC2"
        },
        {
            "bufferView" : 12,
            "componentType" : 5123,
            "count" : 912,
            "type" : "SCALAR"
        },
        {
            "bufferView" : 13,
            "componentType" : 5126,
            "count" : 67,
            "max" : [
                1.0425751209259033,
                0.2691884934902191,
                1.0367705821990967
            ],
            "min" : [
                -1.0319205522537231,
                0.14654728770256042,
                -1.0377546548843384
            ],
            "type" : "VEC3"
        },
        {
            "bufferView" : 14,
            "componentType" : 5126,
            "count" : 67,
            "type" : "VEC3"
        },
        {
            "bufferView" : 15,
            "componentType" : 5126,
            "count" : 67,
            "type" : "VEC2"
        },
        {
            "bufferView" : 16,
            "componentType" : 5123,
            "count" : 234,
            "type" : "SCALAR"
        },
        {
            "bufferView" : 17,
            "componentType" : 5126,
            "count" : 171,
            "max" : [
                1.018189787864685,
                0.15451642870903015,
                1.0099250078201294
            ],
            "min" : [
                -1.0029313564300537,
                -0.29903408885002136,
                -1.011171579360962
            ],
            "type" : "VEC3"
        },
        {
            "bufferView" : 18,
            "componentType" : 5126,
            "count" : 171,
            "type" : "VEC3"
        },
        {
            "bufferView" : 19,
            "componentType" : 5126,
            "count" : 171,
            "type" : "VEC2"
        },
        {
            "bufferView" : 20,
            "componentType" : 5123,
            "count" : 912,
            "type" : "SCALAR"
        }
    ],
    "bufferViews" : [
        {
            "buffer" : 0,
            "byteLength" : 4524,
            "byteOffset" : 0
        },
        {
            "buffer" : 0,
            "byteLength" : 4524,
            "byteOffset" : 4524
        },
        {
            "buffer" : 0,
            "byteLength" : 6032,
            "byteOffset" : 9048
        },
        {
            "buffer" : 0,
            "byteLength" : 3016,
            "byteOffset" : 15080
        },
        {
            "buffer" : 0,
            "byteLength" : 4032,
            "byteOffset" : 18096
        },
        {
            "buffer" : 0,
            "byteLength" : 804,
            "byteOffset" : 22128
        },
        {
            "buffer" : 0,
            "byteLength" : 804,
            "byteOffset" : 22932
        },
        {
            "buffer" : 0,
            "byteLength" : 536,
            "byteOffset" : 23736
        },
        {
            "buffer" : 0,
            "byteLength" : 468,
            "byteOffset" : 24272
        },
        {
            "buffer" : 0,
            "byteLength" : 2052,
            "byteOffset" : 24740
        },
        {
            "buffer" : 0,
            "byteLength" : 2052,
            "byteOffset" : 26792
        },
        {
            "buffer" : 0,
            "byteLength" : 1368,
            "byteOffset" : 28844
        },
        {
            "buffer" : 0,
            "byteLength" : 1824,
            "byteOffset" : 30212
        },
        {
            "buffer" : 0,
            "byteLength" : 804,
            "byteOffset" : 32036
        },
        {
            "buffer" : 0,
            "byteLength" : 804,
            "byteOffset" : 32840
        },
        {
            "buffer" : 0,
            "byteLength" : 536,
            "byteOffset" : 33644
        },
        {
            "buffer" : 0,
            "byteLength" : 468,
            "byteOffset" : 34180
        },
        {
            "buffer" : 0,
            "byteLength" : 2052,
            "byteOffset" : 34648
        },
        {
            "buffer" : 0,
            "byteLength" : 2052,
            "byteOffset" : 36700
        },
        {
            "buffer" : 0,
            "byteLength" : 1368,
            "byteOffset" : 38752
        },
        {
            "buffer" : 0,
            "byteLength" : 1824,
            "byteOffset" : 40120
        }
    ],
    "buffers" : [
        {
            "byteLength" : 41944,
            "uri" : "data:application/octet-stream;base64,"
        }
    ]
}
